<?xml version="1.0" encoding="UTF-8" standalone="no"?>
<!DOCTYPE svg PUBLIC "-//W3C//DTD SVG 1.1//EN" "http://www.w3.org/Graphics/SVG/1.1/DTD/svg11.dtd">
<svg width="100%" height="100%" viewBox="0 0 201 200" version="1.1" xmlns="http://www.w3.org/2000/svg" xmlns:xlink="http://www.w3.org/1999/xlink" xml:space="preserve" xmlns:serif="http://www.serif.com/" style="fill-rule:evenodd;clip-rule:evenodd;stroke-linejoin:round;stroke-miterlimit:2;">
    <g transform="matrix(0.926357,0,0,0.925926,0,0)">
        <path d="M108,0C48.35,0 0,48.35 0,108C0,137.82 12.09,164.82 31.63,184.37L11.06,204.94C6.98,209.02 9.87,216 15.64,216L108,216C167.65,216 216,167.65 216,108C216,48.35 167.65,0 108,0Z" style="fill:rgb(255,69,0);fill-rule:nonzero;"/>
    </g>
    <g id="Snoo" transform="matrix(0.370543,0,0,0.37037,19.972248,29.212963)">
        <g>
            <circle cx="369.16" cy="188.55" r="63.05" style="fill:url(#_Radial1);"/>
            <circle cx="63.05" cy="188.55" r="63.05" style="fill:url(#_Radial2);"/>
            <ellipse cx="216.26" cy="242.72" rx="180" ry="135" style="fill:url(#_Radial3);"/>
            <g>
                <path d="M163.04,229.59C161.99,252.46 146.81,260.76 129.13,260.76C111.45,260.76 97.98,249.05 99.04,226.18C100.09,203.31 115.27,188.17 132.95,188.17C150.63,188.17 164.1,206.71 163.04,229.59Z" style="fill:rgb(132,33,35);fill-rule:nonzero;"/>
                <path d="M333.48,226.18C334.53,249.05 321.06,260.76 303.39,260.76C285.72,260.76 270.54,252.46 269.48,229.59C268.43,206.72 281.9,188.17 299.57,188.17C317.24,188.17 332.42,203.3 333.48,226.18Z" style="fill:rgb(132,33,35);fill-rule:nonzero;"/>
            </g>
            <path d="M163.05,231.59C162.06,253 147.86,260.76 131.32,260.76C114.78,260.76 102.17,249.13 103.16,227.73C104.15,206.32 118.35,192.32 134.89,192.32C151.43,192.32 164.04,210.18 163.05,231.59Z" style="fill:url(#_Radial4);fill-rule:nonzero;"/>
            <path d="M269.47,231.59C270.46,253 284.66,260.76 301.2,260.76C317.74,260.76 330.35,249.13 329.36,227.73C328.37,206.32 314.17,192.32 297.63,192.32C281.09,192.32 268.48,210.18 269.47,231.59Z" style="fill:url(#_Radial5);fill-rule:nonzero;"/>
            <ellipse cx="145.19" cy="212.04" rx="7" ry="7.64" style="fill:rgb(255,196,156);"/>
            <ellipse cx="311.64" cy="212.04" rx="7" ry="7.64" style="fill:rgb(255,196,156);"/>
            <path d="M216.26,276.02C193.94,276.02 172.55,277.1 152.77,279.06C149.39,279.4 147.25,282.84 148.56,285.92C159.64,311.89 185.78,330.13 216.26,330.13C246.74,330.13 272.88,311.89 283.96,285.92C285.27,282.84 283.13,279.4 279.75,279.06C259.97,277.09 238.58,276.02 216.26,276.02Z" style="fill:rgb(187,207,218);fill-rule:nonzero;"/>
            <path d="M216.26,280.98C194.01,280.98 172.69,282.07 152.97,284.07C149.6,284.41 147.46,287.91 148.77,291.04C159.82,317.42 185.87,335.95 216.26,335.95C246.65,335.95 272.7,317.42 283.75,291.04C285.06,287.92 282.92,284.42 279.55,284.07C259.83,282.07 238.51,280.98 216.26,280.98Z" style="fill:white;fill-rule:nonzero;"/>
            <path d="M216.26,278.4C194.36,278.4 173.37,279.48 153.96,281.44C150.64,281.78 148.54,285.22 149.83,288.3C160.7,314.27 186.35,332.51 216.27,332.51C246.19,332.51 271.83,314.27 282.71,288.3C284,285.22 281.9,281.78 278.58,281.44C259.17,279.47 238.18,278.4 216.27,278.4L216.26,278.4Z" style="fill:url(#_Radial6);fill-rule:nonzero;"/>
            <circle cx="314.84" cy="44.68" r="44.68" style="fill:url(#_Radial7);"/>
            <path d="M215.62,113.41C210.27,113.41 205.93,111.17 205.93,107.72C205.93,67.69 238.49,35.13 278.52,35.13C283.87,35.13 288.21,39.47 288.21,44.82C288.21,50.17 283.87,54.51 278.52,54.51C249.18,54.51 225.3,78.38 225.3,107.73C225.3,111.18 220.96,113.42 215.61,113.42L215.62,113.41Z" style="fill:url(#_Radial8);fill-rule:nonzero;"/>
            <path d="M151.29,242.18C151.29,250.46 142.48,254.18 131.6,254.18C120.72,254.18 111.91,250.46 111.91,242.18C111.91,233.9 120.72,227.18 131.6,227.18C142.48,227.18 151.29,233.9 151.29,242.18Z" style="fill:rgb(255,97,1);fill-rule:nonzero;"/>
            <path d="M320.6,242.18C320.6,250.46 311.79,254.18 300.91,254.18C290.03,254.18 281.22,250.46 281.22,242.18C281.22,233.9 290.03,227.18 300.91,227.18C311.79,227.18 320.6,233.9 320.6,242.18Z" style="fill:rgb(255,97,1);fill-rule:nonzero;"/>
        </g>
    </g>
    <defs>
        <radialGradient id="_Radial1" cx="0" cy="0" r="1" gradientUnits="userSpaceOnUse" gradientTransform="matrix(127.45,0,0,110.8815,370.49,151.0133)"><stop offset="0" style="stop-color:rgb(254,255,255);stop-opacity:1"/><stop offset="0.4" style="stop-color:rgb(254,255,255);stop-opacity:1"/><stop offset="0.51" style="stop-color:rgb(249,252,252);stop-opacity:1"/><stop offset="0.62" style="stop-color:rgb(237,243,245);stop-opacity:1"/><stop offset="0.7" style="stop-color:rgb(222,233,236);stop-opacity:1"/><stop offset="0.72" style="stop-color:rgb(216,228,232);stop-opacity:1"/><stop offset="0.76" style="stop-color:rgb(204,216,223);stop-opacity:1"/><stop offset="0.8" style="stop-color:rgb(200,213,221);stop-opacity:1"/><stop offset="0.83" style="stop-color:rgb(204,214,222);stop-opacity:1"/><stop offset="0.85" style="stop-color:rgb(216,219,226);stop-opacity:1"/><stop offset="0.88" style="stop-color:rgb(237,227,233);stop-opacity:1"/><stop offset="0.9" style="stop-color:rgb(255,235,239);stop-opacity:1"/><stop offset="1" style="stop-color:rgb(255,235,239);stop-opacity:1"/></radialGradient>
        <radialGradient id="_Radial2" cx="0" cy="0" r="1" gradientUnits="userSpaceOnUse" gradientTransform="matrix(16071.445,0,0,16071.445,8118.318,188.55)"><stop offset="0" style="stop-color:rgb(254,255,255);stop-opacity:1"/><stop offset="0.4" style="stop-color:rgb(254,255,255);stop-opacity:1"/><stop offset="0.51" style="stop-color:rgb(249,252,252);stop-opacity:1"/><stop offset="0.62" style="stop-color:rgb(237,243,245);stop-opacity:1"/><stop offset="0.7" style="stop-color:rgb(222,233,236);stop-opacity:1"/><stop offset="0.72" style="stop-color:rgb(216,228,232);stop-opacity:1"/><stop offset="0.76" style="stop-color:rgb(204,216,223);stop-opacity:1"/><stop offset="0.8" style="stop-color:rgb(200,213,221);stop-opacity:1"/><stop offset="0.83" style="stop-color:rgb(204,214,222);stop-opacity:1"/><stop offset="0.85" style="stop-color:rgb(216,219,226);stop-opacity:1"/><stop offset="0.88" style="stop-color:rgb(237,227,233);stop-opacity:1"/><stop offset="0.9" style="stop-color:rgb(255,235,239);stop-opacity:1"/><stop offset="1" style="stop-color:rgb(255,235,239);stop-opacity:1"/></radialGradient>
        <radialGradient id="_Radial3" cx="0" cy="0" r="1" gradientUnits="userSpaceOnUse" gradientTransform="matrix(138398.4,0,0,96878.88,79286.66,36532.34)"><stop offset="0" style="stop-color:rgb(254,255,255);stop-opacity:1"/><stop offset="0.4" style="stop-color:rgb(254,255,255);stop-opacity:1"/><stop offset="0.51" style="stop-color:rgb(249,252,252);stop-opacity:1"/><stop offset="0.62" style="stop-color:rgb(237,243,245);stop-opacity:1"/><stop offset="0.7" style="stop-color:rgb(222,233,236);stop-opacity:1"/><stop offset="0.72" style="stop-color:rgb(216,228,232);stop-opacity:1"/><stop offset="0.76" style="stop-color:rgb(204,216,223);stop-opacity:1"/><stop offset="0.8" style="stop-color:rgb(200,213,221);stop-opacity:1"/><stop offset="0.83" style="stop-color:rgb(204,214,222);stop-opacity:1"/><stop offset="0.85" style="stop-color:rgb(216,219,226);stop-opacity:1"/><stop offset="0.88" style="stop-color:rgb(237,227,233);stop-opacity:1"/><stop offset="0.9" style="stop-color:rgb(255,235,239);stop-opacity:1"/><stop offset="1" style="stop-color:rgb(255,235,239);stop-opacity:1"/></radialGradient>
        <radialGradient id="_Radial4" cx="0" cy="0" r="1" gradientUnits="userSpaceOnUse" gradientTransform="matrix(32.12,0,0,46.8952,134.7,241.0608)"><stop offset="0" style="stop-color:rgb(255,102,0);stop-opacity:1"/><stop offset="0.5" style="stop-color:rgb(255,69,0);stop-opacity:1"/><stop offset="0.7" style="stop-color:rgb(252,67,1);stop-opacity:1"/><stop offset="0.82" style="stop-color:rgb(244,63,7);stop-opacity:1"/><stop offset="0.92" style="stop-color:rgb(229,56,18);stop-opacity:1"/><stop offset="1" style="stop-color:rgb(212,48,31);stop-opacity:1"/></radialGradient>
        <radialGradient id="_Radial5" cx="0" cy="0" r="1" gradientUnits="userSpaceOnUse" gradientTransform="matrix(-2198.2928,0,0,3209.507488,18138.332653,16690.521152)"><stop offset="0" style="stop-color:rgb(255,102,0);stop-opacity:1"/><stop offset="0.5" style="stop-color:rgb(255,69,0);stop-opacity:1"/><stop offset="0.7" style="stop-color:rgb(252,67,1);stop-opacity:1"/><stop offset="0.82" style="stop-color:rgb(244,63,7);stop-opacity:1"/><stop offset="0.92" style="stop-color:rgb(229,56,18);stop-opacity:1"/><stop offset="1" style="stop-color:rgb(212,48,31);stop-opacity:1"/></radialGradient>
        <radialGradient id="_Radial6" cx="0" cy="0" r="1" gradientUnits="userSpaceOnUse" gradientTransform="matrix(113.26,0,0,74.7516,215.93,339.8132)"><stop offset="0" style="stop-color:rgb(23,46,53);stop-opacity:1"/><stop offset="0.29" style="stop-color:rgb(14,28,33);stop-opacity:1"/><stop offset="0.73" style="stop-color:rgb(3,7,8);stop-opacity:1"/><stop offset="1" style="stop-color:black;stop-opacity:1"/></radialGradient>
        <radialGradient id="_Radial7" cx="0" cy="0" r="1" gradientUnits="userSpaceOnUse" gradientTransform="matrix(8884.1712,0,0,8706.487776,28490.9416,309.239216)"><stop offset="0" style="stop-color:rgb(254,255,255);stop-opacity:1"/><stop offset="0.4" style="stop-color:rgb(254,255,255);stop-opacity:1"/><stop offset="0.51" style="stop-color:rgb(249,252,252);stop-opacity:1"/><stop offset="0.62" style="stop-color:rgb(237,243,245);stop-opacity:1"/><stop offset="0.7" style="stop-color:rgb(222,233,236);stop-opacity:1"/><stop offset="0.72" style="stop-color:rgb(216,228,232);stop-opacity:1"/><stop offset="0.76" style="stop-color:rgb(204,216,223);stop-opacity:1"/><stop offset="0.8" style="stop-color:rgb(200,213,221);stop-opacity:1"/><stop offset="0.83" style="stop-color:rgb(204,214,222);stop-opacity:1"/><stop offset="0.85" style="stop-color:rgb(216,219,226);stop-opacity:1"/><stop offset="0.88" style="stop-color:rgb(237,227,233);stop-opacity:1"/><stop offset="0.9" style="stop-color:rgb(255,235,239);stop-opacity:1"/><stop offset="1" style="stop-color:rgb(255,235,239);stop-opacity:1"/></radialGradient>
        <radialGradient id="_Radial8" cx="0" cy="0" r="1" gradientUnits="userSpaceOnUse" gradientTransform="matrix(81.49,0,0,81.49,274.38,103.82)"><stop offset="0" style="stop-color:rgb(122,146,153);stop-opacity:1"/><stop offset="0.48" style="stop-color:rgb(122,146,153);stop-opacity:1"/><stop offset="0.67" style="stop-color:rgb(23,46,53);stop-opacity:1"/><stop offset="0.75" style="stop-color:black;stop-opacity:1"/><stop offset="0.82" style="stop-color:rgb(23,46,53);stop-opacity:1"/><stop offset="1" style="stop-color:rgb(23,46,53);stop-opacity:1"/></radialGradient>
    </defs>
</svg>
